<mxfile host="app.diagrams.net" agent="Mozilla/5.0 (Windows NT 10.0; Win64; x64) AppleWebKit/537.36 (KHTML, like Gecko) Chrome/131.0.0.0 Safari/537.36" version="26.0.3">
  <diagram name="Page-1" id="eRmt_IbSF0te3_GmRRGh">
    <mxGraphModel dx="1925" dy="1574" grid="1" gridSize="10" guides="1" tooltips="1" connect="1" arrows="1" fold="1" page="1" pageScale="1" pageWidth="850" pageHeight="1100" math="0" shadow="0">
      <root>
        <mxCell id="0" />
        <mxCell id="1" parent="0" />
        <mxCell id="L9DdGGGKMgnVzfjOgFJ2-1" value="USER" style="rounded=0;whiteSpace=wrap;html=1;" parent="1" vertex="1">
          <mxGeometry x="360" y="260" width="80" height="40" as="geometry" />
        </mxCell>
        <mxCell id="L9DdGGGKMgnVzfjOgFJ2-2" value="" style="endArrow=none;html=1;rounded=0;entryX=0.937;entryY=0.354;entryDx=0;entryDy=0;exitX=0;exitY=0;exitDx=0;exitDy=0;entryPerimeter=0;" parent="1" source="L9DdGGGKMgnVzfjOgFJ2-1" target="L9DdGGGKMgnVzfjOgFJ2-6" edge="1">
          <mxGeometry width="50" height="50" relative="1" as="geometry">
            <mxPoint x="370" y="300" as="sourcePoint" />
            <mxPoint x="276.3499999999999" y="222" as="targetPoint" />
          </mxGeometry>
        </mxCell>
        <mxCell id="L9DdGGGKMgnVzfjOgFJ2-4" value="" style="endArrow=none;html=1;rounded=0;entryX=1;entryY=0.5;entryDx=0;entryDy=0;exitX=0;exitY=0;exitDx=0;exitDy=0;" parent="1" source="L9DdGGGKMgnVzfjOgFJ2-1" target="L9DdGGGKMgnVzfjOgFJ2-7" edge="1">
          <mxGeometry width="50" height="50" relative="1" as="geometry">
            <mxPoint x="370" y="190" as="sourcePoint" />
            <mxPoint x="314.4000000000001" y="194.41999999999996" as="targetPoint" />
          </mxGeometry>
        </mxCell>
        <mxCell id="L9DdGGGKMgnVzfjOgFJ2-6" value="UserID" style="ellipse;whiteSpace=wrap;html=1;" parent="1" vertex="1">
          <mxGeometry x="220" y="240" width="60" height="30" as="geometry" />
        </mxCell>
        <mxCell id="L9DdGGGKMgnVzfjOgFJ2-7" value="FullName" style="ellipse;whiteSpace=wrap;html=1;" parent="1" vertex="1">
          <mxGeometry x="183.75" y="205" width="60" height="35" as="geometry" />
        </mxCell>
        <mxCell id="L9DdGGGKMgnVzfjOgFJ2-9" value="" style="endArrow=none;html=1;rounded=0;entryX=1;entryY=1;entryDx=0;entryDy=0;exitX=0;exitY=0;exitDx=0;exitDy=0;" parent="1" source="L9DdGGGKMgnVzfjOgFJ2-1" target="L9DdGGGKMgnVzfjOgFJ2-10" edge="1">
          <mxGeometry width="50" height="50" relative="1" as="geometry">
            <mxPoint x="400" y="220" as="sourcePoint" />
            <mxPoint x="374.4000000000001" y="174.41999999999996" as="targetPoint" />
          </mxGeometry>
        </mxCell>
        <mxCell id="L9DdGGGKMgnVzfjOgFJ2-10" value="Email" style="ellipse;whiteSpace=wrap;html=1;" parent="1" vertex="1">
          <mxGeometry x="235" y="180" width="60" height="30" as="geometry" />
        </mxCell>
        <mxCell id="L9DdGGGKMgnVzfjOgFJ2-11" value="" style="endArrow=none;html=1;rounded=0;entryX=0.672;entryY=1.001;entryDx=0;entryDy=0;exitX=0;exitY=0;exitDx=0;exitDy=0;entryPerimeter=0;" parent="1" source="L9DdGGGKMgnVzfjOgFJ2-1" target="L9DdGGGKMgnVzfjOgFJ2-12" edge="1">
          <mxGeometry width="50" height="50" relative="1" as="geometry">
            <mxPoint x="460" y="230" as="sourcePoint" />
            <mxPoint x="434.4000000000001" y="184.41999999999996" as="targetPoint" />
          </mxGeometry>
        </mxCell>
        <mxCell id="L9DdGGGKMgnVzfjOgFJ2-12" value="Address" style="ellipse;whiteSpace=wrap;html=1;" parent="1" vertex="1">
          <mxGeometry x="230" y="118" width="70" height="40" as="geometry" />
        </mxCell>
        <mxCell id="L9DdGGGKMgnVzfjOgFJ2-13" value="" style="endArrow=none;html=1;rounded=0;entryX=0.5;entryY=1;entryDx=0;entryDy=0;exitX=0;exitY=0;exitDx=0;exitDy=0;" parent="1" source="L9DdGGGKMgnVzfjOgFJ2-1" target="L9DdGGGKMgnVzfjOgFJ2-14" edge="1">
          <mxGeometry width="50" height="50" relative="1" as="geometry">
            <mxPoint x="410" y="230" as="sourcePoint" />
            <mxPoint x="504.4000000000001" y="174.41999999999996" as="targetPoint" />
          </mxGeometry>
        </mxCell>
        <mxCell id="L9DdGGGKMgnVzfjOgFJ2-14" value="Role" style="ellipse;whiteSpace=wrap;html=1;" parent="1" vertex="1">
          <mxGeometry x="305" y="135.25" width="50" height="30" as="geometry" />
        </mxCell>
        <mxCell id="L9DdGGGKMgnVzfjOgFJ2-15" value="" style="endArrow=none;html=1;rounded=0;entryX=0;entryY=1;entryDx=0;entryDy=0;exitX=0.5;exitY=0;exitDx=0;exitDy=0;" parent="1" source="L9DdGGGKMgnVzfjOgFJ2-14" target="L9DdGGGKMgnVzfjOgFJ2-16" edge="1">
          <mxGeometry width="50" height="50" relative="1" as="geometry">
            <mxPoint x="360" y="160" as="sourcePoint" />
            <mxPoint x="454.4000000000001" y="104.41999999999996" as="targetPoint" />
          </mxGeometry>
        </mxCell>
        <mxCell id="L9DdGGGKMgnVzfjOgFJ2-16" value="Both" style="ellipse;whiteSpace=wrap;html=1;" parent="1" vertex="1">
          <mxGeometry x="337.25" y="60" width="40" height="30" as="geometry" />
        </mxCell>
        <mxCell id="L9DdGGGKMgnVzfjOgFJ2-17" value="" style="endArrow=none;html=1;rounded=0;entryX=0.722;entryY=0.931;entryDx=0;entryDy=0;exitX=0.5;exitY=0;exitDx=0;exitDy=0;entryPerimeter=0;" parent="1" source="L9DdGGGKMgnVzfjOgFJ2-14" target="L9DdGGGKMgnVzfjOgFJ2-18" edge="1">
          <mxGeometry width="50" height="50" relative="1" as="geometry">
            <mxPoint x="340" y="150" as="sourcePoint" />
            <mxPoint x="464.4000000000001" y="114.41999999999996" as="targetPoint" />
          </mxGeometry>
        </mxCell>
        <mxCell id="L9DdGGGKMgnVzfjOgFJ2-18" value="Host" style="ellipse;whiteSpace=wrap;html=1;" parent="1" vertex="1">
          <mxGeometry x="245" y="76.5" width="40" height="30" as="geometry" />
        </mxCell>
        <mxCell id="L9DdGGGKMgnVzfjOgFJ2-19" value="" style="endArrow=none;html=1;rounded=0;entryX=0.5;entryY=1;entryDx=0;entryDy=0;exitX=0.5;exitY=0;exitDx=0;exitDy=0;" parent="1" source="L9DdGGGKMgnVzfjOgFJ2-14" target="L9DdGGGKMgnVzfjOgFJ2-20" edge="1">
          <mxGeometry width="50" height="50" relative="1" as="geometry">
            <mxPoint x="315" y="140" as="sourcePoint" />
            <mxPoint x="424.4000000000001" y="74.41999999999996" as="targetPoint" />
          </mxGeometry>
        </mxCell>
        <mxCell id="L9DdGGGKMgnVzfjOgFJ2-20" value="Renter" style="ellipse;whiteSpace=wrap;html=1;" parent="1" vertex="1">
          <mxGeometry x="280" y="50" width="50" height="30" as="geometry" />
        </mxCell>
        <mxCell id="L9DdGGGKMgnVzfjOgFJ2-21" value="" style="endArrow=none;html=1;rounded=0;entryX=0.5;entryY=1;entryDx=0;entryDy=0;exitX=0;exitY=0;exitDx=0;exitDy=0;" parent="1" source="L9DdGGGKMgnVzfjOgFJ2-1" target="L9DdGGGKMgnVzfjOgFJ2-22" edge="1">
          <mxGeometry width="50" height="50" relative="1" as="geometry">
            <mxPoint x="395" y="221" as="sourcePoint" />
            <mxPoint x="559.4000000000001" y="155.41999999999996" as="targetPoint" />
          </mxGeometry>
        </mxCell>
        <mxCell id="L9DdGGGKMgnVzfjOgFJ2-22" value="Password" style="ellipse;whiteSpace=wrap;html=1;" parent="1" vertex="1">
          <mxGeometry x="346" y="106.25" width="62.5" height="29" as="geometry" />
        </mxCell>
        <mxCell id="L9DdGGGKMgnVzfjOgFJ2-23" value="" style="endArrow=none;html=1;rounded=0;entryX=0.598;entryY=0.98;entryDx=0;entryDy=0;exitX=0;exitY=0;exitDx=0;exitDy=0;entryPerimeter=0;" parent="1" source="L9DdGGGKMgnVzfjOgFJ2-1" target="L9DdGGGKMgnVzfjOgFJ2-24" edge="1">
          <mxGeometry width="50" height="50" relative="1" as="geometry">
            <mxPoint x="375" y="269" as="sourcePoint" />
            <mxPoint x="594.4000000000001" y="184.41999999999996" as="targetPoint" />
          </mxGeometry>
        </mxCell>
        <mxCell id="L9DdGGGKMgnVzfjOgFJ2-24" value="SocialLoginID" style="ellipse;whiteSpace=wrap;html=1;" parent="1" vertex="1">
          <mxGeometry x="380" y="61" width="90" height="29" as="geometry" />
        </mxCell>
        <mxCell id="L9DdGGGKMgnVzfjOgFJ2-25" value="" style="endArrow=none;html=1;rounded=0;entryX=0.056;entryY=0.655;entryDx=0;entryDy=0;exitX=0;exitY=0;exitDx=0;exitDy=0;entryPerimeter=0;" parent="1" source="L9DdGGGKMgnVzfjOgFJ2-1" target="L9DdGGGKMgnVzfjOgFJ2-26" edge="1">
          <mxGeometry width="50" height="50" relative="1" as="geometry">
            <mxPoint x="345" y="277" as="sourcePoint" />
            <mxPoint x="599.4000000000001" y="221.41999999999996" as="targetPoint" />
          </mxGeometry>
        </mxCell>
        <mxCell id="L9DdGGGKMgnVzfjOgFJ2-26" value="Profile Photo" style="ellipse;whiteSpace=wrap;html=1;" parent="1" vertex="1">
          <mxGeometry x="435" y="99" width="90" height="29" as="geometry" />
        </mxCell>
        <mxCell id="L9DdGGGKMgnVzfjOgFJ2-27" value="" style="endArrow=none;html=1;rounded=0;entryX=0.086;entryY=0.739;entryDx=0;entryDy=0;exitX=0;exitY=0;exitDx=0;exitDy=0;entryPerimeter=0;" parent="1" source="L9DdGGGKMgnVzfjOgFJ2-1" target="L9DdGGGKMgnVzfjOgFJ2-28" edge="1">
          <mxGeometry width="50" height="50" relative="1" as="geometry">
            <mxPoint x="355" y="250" as="sourcePoint" />
            <mxPoint x="609.4000000000001" y="231.41999999999996" as="targetPoint" />
          </mxGeometry>
        </mxCell>
        <mxCell id="L9DdGGGKMgnVzfjOgFJ2-28" value="Created At" style="ellipse;whiteSpace=wrap;html=1;" parent="1" vertex="1">
          <mxGeometry x="435" y="135.25" width="75" height="29" as="geometry" />
        </mxCell>
        <mxCell id="L9DdGGGKMgnVzfjOgFJ2-29" value="" style="endArrow=none;html=1;rounded=0;exitX=0;exitY=0;exitDx=0;exitDy=0;" parent="1" source="L9DdGGGKMgnVzfjOgFJ2-1" target="L9DdGGGKMgnVzfjOgFJ2-30" edge="1">
          <mxGeometry width="50" height="50" relative="1" as="geometry">
            <mxPoint x="440" y="380" as="sourcePoint" />
            <mxPoint x="694.4000000000001" y="361.41999999999996" as="targetPoint" />
          </mxGeometry>
        </mxCell>
        <mxCell id="L9DdGGGKMgnVzfjOgFJ2-30" value="Updated At" style="ellipse;whiteSpace=wrap;html=1;" parent="1" vertex="1">
          <mxGeometry x="430" y="171.5" width="70" height="29" as="geometry" />
        </mxCell>
        <mxCell id="L9DdGGGKMgnVzfjOgFJ2-31" value="" style="endArrow=none;html=1;rounded=0;entryX=0.5;entryY=1;entryDx=0;entryDy=0;exitX=0.5;exitY=0;exitDx=0;exitDy=0;" parent="1" source="L9DdGGGKMgnVzfjOgFJ2-41" target="L9DdGGGKMgnVzfjOgFJ2-1" edge="1">
          <mxGeometry width="50" height="50" relative="1" as="geometry">
            <mxPoint x="400" y="360" as="sourcePoint" />
            <mxPoint x="396" y="350" as="targetPoint" />
          </mxGeometry>
        </mxCell>
        <mxCell id="L9DdGGGKMgnVzfjOgFJ2-43" value="1" style="edgeLabel;html=1;align=center;verticalAlign=middle;resizable=0;points=[];" parent="L9DdGGGKMgnVzfjOgFJ2-31" vertex="1" connectable="0">
          <mxGeometry x="-0.3714" relative="1" as="geometry">
            <mxPoint as="offset" />
          </mxGeometry>
        </mxCell>
        <mxCell id="L9DdGGGKMgnVzfjOgFJ2-32" value="CAR" style="rounded=0;whiteSpace=wrap;html=1;" parent="1" vertex="1">
          <mxGeometry x="370" y="535" width="60" height="30" as="geometry" />
        </mxCell>
        <mxCell id="L9DdGGGKMgnVzfjOgFJ2-33" value="" style="endArrow=none;html=1;rounded=0;entryX=0;entryY=0;entryDx=0;entryDy=0;exitX=0;exitY=1;exitDx=0;exitDy=0;" parent="1" source="L9DdGGGKMgnVzfjOgFJ2-32" target="L9DdGGGKMgnVzfjOgFJ2-35" edge="1">
          <mxGeometry width="50" height="50" relative="1" as="geometry">
            <mxPoint x="365" y="630" as="sourcePoint" />
            <mxPoint x="281.3499999999999" y="592" as="targetPoint" />
          </mxGeometry>
        </mxCell>
        <mxCell id="L9DdGGGKMgnVzfjOgFJ2-34" value="" style="endArrow=none;html=1;rounded=0;exitX=0;exitY=1;exitDx=0;exitDy=0;" parent="1" source="L9DdGGGKMgnVzfjOgFJ2-32" target="L9DdGGGKMgnVzfjOgFJ2-36" edge="1">
          <mxGeometry width="50" height="50" relative="1" as="geometry">
            <mxPoint x="365" y="570" as="sourcePoint" />
            <mxPoint x="319.4000000000001" y="564.42" as="targetPoint" />
          </mxGeometry>
        </mxCell>
        <mxCell id="L9DdGGGKMgnVzfjOgFJ2-35" value="CarID " style="ellipse;whiteSpace=wrap;html=1;" parent="1" vertex="1">
          <mxGeometry x="395" y="616" width="60" height="30" as="geometry" />
        </mxCell>
        <mxCell id="L9DdGGGKMgnVzfjOgFJ2-36" value="HostID " style="ellipse;whiteSpace=wrap;html=1;" parent="1" vertex="1">
          <mxGeometry x="365" y="650.5" width="60" height="35" as="geometry" />
        </mxCell>
        <mxCell id="L9DdGGGKMgnVzfjOgFJ2-37" value="" style="endArrow=none;html=1;rounded=0;exitX=0;exitY=1;exitDx=0;exitDy=0;" parent="1" source="L9DdGGGKMgnVzfjOgFJ2-32" target="L9DdGGGKMgnVzfjOgFJ2-38" edge="1">
          <mxGeometry width="50" height="50" relative="1" as="geometry">
            <mxPoint x="365" y="630" as="sourcePoint" />
            <mxPoint x="379.4000000000001" y="544.42" as="targetPoint" />
          </mxGeometry>
        </mxCell>
        <mxCell id="L9DdGGGKMgnVzfjOgFJ2-38" value="Make" style="ellipse;whiteSpace=wrap;html=1;" parent="1" vertex="1">
          <mxGeometry x="327.25" y="685.5" width="60" height="30" as="geometry" />
        </mxCell>
        <mxCell id="L9DdGGGKMgnVzfjOgFJ2-39" value="" style="endArrow=none;html=1;rounded=0;exitX=0;exitY=1;exitDx=0;exitDy=0;" parent="1" source="L9DdGGGKMgnVzfjOgFJ2-32" target="L9DdGGGKMgnVzfjOgFJ2-40" edge="1">
          <mxGeometry width="50" height="50" relative="1" as="geometry">
            <mxPoint x="365" y="630" as="sourcePoint" />
            <mxPoint x="439.4000000000001" y="554.42" as="targetPoint" />
          </mxGeometry>
        </mxCell>
        <mxCell id="L9DdGGGKMgnVzfjOgFJ2-40" value="Year" style="ellipse;whiteSpace=wrap;html=1;" parent="1" vertex="1">
          <mxGeometry x="310" y="661.5" width="40" height="24" as="geometry" />
        </mxCell>
        <mxCell id="L9DdGGGKMgnVzfjOgFJ2-41" value="&lt;div&gt;&lt;br&gt;&lt;/div&gt;For Hosts&lt;div&gt;Only&lt;/div&gt;" style="rhombus;whiteSpace=wrap;html=1;" parent="1" vertex="1">
          <mxGeometry x="360" y="370" width="80" height="80" as="geometry" />
        </mxCell>
        <mxCell id="L9DdGGGKMgnVzfjOgFJ2-42" value="" style="endArrow=none;html=1;rounded=0;entryX=0.5;entryY=1;entryDx=0;entryDy=0;exitX=0.5;exitY=0;exitDx=0;exitDy=0;" parent="1" source="L9DdGGGKMgnVzfjOgFJ2-32" target="L9DdGGGKMgnVzfjOgFJ2-41" edge="1">
          <mxGeometry width="50" height="50" relative="1" as="geometry">
            <mxPoint x="399.58" y="557" as="sourcePoint" />
            <mxPoint x="399.58" y="487" as="targetPoint" />
          </mxGeometry>
        </mxCell>
        <mxCell id="L9DdGGGKMgnVzfjOgFJ2-44" value="n" style="edgeLabel;html=1;align=center;verticalAlign=middle;resizable=0;points=[];" parent="L9DdGGGKMgnVzfjOgFJ2-42" vertex="1" connectable="0">
          <mxGeometry x="-0.0706" y="1" relative="1" as="geometry">
            <mxPoint as="offset" />
          </mxGeometry>
        </mxCell>
        <mxCell id="L9DdGGGKMgnVzfjOgFJ2-45" value="" style="endArrow=none;html=1;rounded=0;exitX=0;exitY=1;exitDx=0;exitDy=0;" parent="1" source="L9DdGGGKMgnVzfjOgFJ2-32" target="L9DdGGGKMgnVzfjOgFJ2-46" edge="1">
          <mxGeometry width="50" height="50" relative="1" as="geometry">
            <mxPoint x="380" y="575" as="sourcePoint" />
            <mxPoint x="449.4000000000001" y="564.42" as="targetPoint" />
          </mxGeometry>
        </mxCell>
        <mxCell id="L9DdGGGKMgnVzfjOgFJ2-46" value="Category " style="ellipse;whiteSpace=wrap;html=1;" parent="1" vertex="1">
          <mxGeometry x="190" y="670" width="60" height="34" as="geometry" />
        </mxCell>
        <mxCell id="L9DdGGGKMgnVzfjOgFJ2-47" value="" style="endArrow=none;html=1;rounded=0;exitX=0;exitY=1;exitDx=0;exitDy=0;" parent="1" source="L9DdGGGKMgnVzfjOgFJ2-32" target="L9DdGGGKMgnVzfjOgFJ2-48" edge="1">
          <mxGeometry width="50" height="50" relative="1" as="geometry">
            <mxPoint x="390" y="585" as="sourcePoint" />
            <mxPoint x="459.4000000000001" y="574.42" as="targetPoint" />
          </mxGeometry>
        </mxCell>
        <mxCell id="L9DdGGGKMgnVzfjOgFJ2-48" value="Color" style="ellipse;whiteSpace=wrap;html=1;" parent="1" vertex="1">
          <mxGeometry x="263.75" y="681.5" width="50" height="34" as="geometry" />
        </mxCell>
        <mxCell id="L9DdGGGKMgnVzfjOgFJ2-49" value="" style="endArrow=none;html=1;rounded=0;exitX=0;exitY=1;exitDx=0;exitDy=0;" parent="1" source="L9DdGGGKMgnVzfjOgFJ2-32" target="L9DdGGGKMgnVzfjOgFJ2-50" edge="1">
          <mxGeometry width="50" height="50" relative="1" as="geometry">
            <mxPoint x="317" y="493" as="sourcePoint" />
            <mxPoint x="386.4000000000001" y="482.41999999999996" as="targetPoint" />
          </mxGeometry>
        </mxCell>
        <mxCell id="L9DdGGGKMgnVzfjOgFJ2-50" value="RegistrationNumber" style="ellipse;whiteSpace=wrap;html=1;" parent="1" vertex="1">
          <mxGeometry x="149.75" y="715.5" width="140" height="34" as="geometry" />
        </mxCell>
        <mxCell id="L9DdGGGKMgnVzfjOgFJ2-51" value="" style="endArrow=none;html=1;rounded=0;exitX=0;exitY=1;exitDx=0;exitDy=0;" parent="1" source="L9DdGGGKMgnVzfjOgFJ2-32" target="L9DdGGGKMgnVzfjOgFJ2-52" edge="1">
          <mxGeometry width="50" height="50" relative="1" as="geometry">
            <mxPoint x="370" y="561" as="sourcePoint" />
            <mxPoint x="506.4000000000001" y="530.42" as="targetPoint" />
          </mxGeometry>
        </mxCell>
        <mxCell id="L9DdGGGKMgnVzfjOgFJ2-52" value="FuelType  " style="ellipse;whiteSpace=wrap;html=1;" parent="1" vertex="1">
          <mxGeometry x="187.5" y="627.5" width="60" height="34" as="geometry" />
        </mxCell>
        <mxCell id="L9DdGGGKMgnVzfjOgFJ2-53" value="" style="endArrow=none;html=1;rounded=0;exitX=0;exitY=1;exitDx=0;exitDy=0;" parent="1" source="L9DdGGGKMgnVzfjOgFJ2-32" target="L9DdGGGKMgnVzfjOgFJ2-54" edge="1">
          <mxGeometry width="50" height="50" relative="1" as="geometry">
            <mxPoint x="346" y="484" as="sourcePoint" />
            <mxPoint x="425.4000000000001" y="483.41999999999996" as="targetPoint" />
          </mxGeometry>
        </mxCell>
        <mxCell id="L9DdGGGKMgnVzfjOgFJ2-54" value="SeatingCapacity " style="ellipse;whiteSpace=wrap;html=1;" parent="1" vertex="1">
          <mxGeometry x="143" y="582" width="107" height="34" as="geometry" />
        </mxCell>
        <mxCell id="L9DdGGGKMgnVzfjOgFJ2-55" value="" style="endArrow=none;html=1;rounded=0;exitX=0;exitY=1;exitDx=0;exitDy=0;" parent="1" source="L9DdGGGKMgnVzfjOgFJ2-32" target="L9DdGGGKMgnVzfjOgFJ2-56" edge="1">
          <mxGeometry width="50" height="50" relative="1" as="geometry">
            <mxPoint x="346" y="450" as="sourcePoint" />
            <mxPoint x="425.4000000000001" y="449.41999999999996" as="targetPoint" />
          </mxGeometry>
        </mxCell>
        <mxCell id="L9DdGGGKMgnVzfjOgFJ2-56" value="RentalPricePerDay " style="ellipse;whiteSpace=wrap;html=1;" parent="1" vertex="1">
          <mxGeometry x="53" y="560" width="117" height="34" as="geometry" />
        </mxCell>
        <mxCell id="L9DdGGGKMgnVzfjOgFJ2-57" value="" style="endArrow=none;html=1;rounded=0;exitX=0;exitY=1;exitDx=0;exitDy=0;" parent="1" source="L9DdGGGKMgnVzfjOgFJ2-32" target="L9DdGGGKMgnVzfjOgFJ2-58" edge="1">
          <mxGeometry width="50" height="50" relative="1" as="geometry">
            <mxPoint x="429.5" y="617.9999999999999" as="sourcePoint" />
            <mxPoint x="539.9000000000001" y="462.41999999999996" as="targetPoint" />
          </mxGeometry>
        </mxCell>
        <mxCell id="L9DdGGGKMgnVzfjOgFJ2-58" value="AvailabilityStatus  " style="ellipse;whiteSpace=wrap;html=1;" parent="1" vertex="1">
          <mxGeometry x="158.25" y="533" width="105.5" height="34" as="geometry" />
        </mxCell>
        <mxCell id="L9DdGGGKMgnVzfjOgFJ2-59" value="" style="endArrow=none;html=1;rounded=0;exitX=0;exitY=1;exitDx=0;exitDy=0;" parent="1" source="L9DdGGGKMgnVzfjOgFJ2-32" target="L9DdGGGKMgnVzfjOgFJ2-60" edge="1">
          <mxGeometry width="50" height="50" relative="1" as="geometry">
            <mxPoint x="497" y="601.9999999999999" as="sourcePoint" />
            <mxPoint x="645.4000000000001" y="463.41999999999996" as="targetPoint" />
          </mxGeometry>
        </mxCell>
        <mxCell id="L9DdGGGKMgnVzfjOgFJ2-60" value="MaintenanceDueDate   " style="ellipse;whiteSpace=wrap;html=1;" parent="1" vertex="1">
          <mxGeometry x="147.5" y="490" width="132.5" height="34" as="geometry" />
        </mxCell>
        <mxCell id="L9DdGGGKMgnVzfjOgFJ2-61" value="" style="endArrow=none;html=1;rounded=0;exitX=0;exitY=1;exitDx=0;exitDy=0;" parent="1" source="L9DdGGGKMgnVzfjOgFJ2-32" target="L9DdGGGKMgnVzfjOgFJ2-62" edge="1">
          <mxGeometry width="50" height="50" relative="1" as="geometry">
            <mxPoint x="420" y="510" as="sourcePoint" />
            <mxPoint x="589.9000000000001" y="407.41999999999996" as="targetPoint" />
          </mxGeometry>
        </mxCell>
        <mxCell id="L9DdGGGKMgnVzfjOgFJ2-62" value="CreatedAt  " style="ellipse;whiteSpace=wrap;html=1;" parent="1" vertex="1">
          <mxGeometry x="190" y="440" width="82.5" height="34" as="geometry" />
        </mxCell>
        <mxCell id="L9DdGGGKMgnVzfjOgFJ2-63" value="" style="endArrow=none;html=1;rounded=0;exitX=0;exitY=1;exitDx=0;exitDy=0;" parent="1" source="L9DdGGGKMgnVzfjOgFJ2-32" target="L9DdGGGKMgnVzfjOgFJ2-64" edge="1">
          <mxGeometry width="50" height="50" relative="1" as="geometry">
            <mxPoint x="438.5" y="599" as="sourcePoint" />
            <mxPoint x="658.4000000000001" y="441.41999999999996" as="targetPoint" />
          </mxGeometry>
        </mxCell>
        <mxCell id="L9DdGGGKMgnVzfjOgFJ2-64" value="UpdatedAt  " style="ellipse;whiteSpace=wrap;html=1;" parent="1" vertex="1">
          <mxGeometry x="277.5" y="456" width="82.5" height="34" as="geometry" />
        </mxCell>
        <mxCell id="L9DdGGGKMgnVzfjOgFJ2-65" value="" style="endArrow=none;html=1;rounded=0;entryX=1;entryY=0.5;entryDx=0;entryDy=0;exitX=0;exitY=0.5;exitDx=0;exitDy=0;" parent="1" source="L9DdGGGKMgnVzfjOgFJ2-68" target="L9DdGGGKMgnVzfjOgFJ2-1" edge="1">
          <mxGeometry width="50" height="50" relative="1" as="geometry">
            <mxPoint x="650" y="328" as="sourcePoint" />
            <mxPoint x="650" y="268" as="targetPoint" />
          </mxGeometry>
        </mxCell>
        <mxCell id="L9DdGGGKMgnVzfjOgFJ2-66" value="1" style="edgeLabel;html=1;align=center;verticalAlign=middle;resizable=0;points=[];" parent="L9DdGGGKMgnVzfjOgFJ2-65" vertex="1" connectable="0">
          <mxGeometry x="-0.3714" relative="1" as="geometry">
            <mxPoint as="offset" />
          </mxGeometry>
        </mxCell>
        <mxCell id="L9DdGGGKMgnVzfjOgFJ2-67" value="BOOKING" style="rounded=0;whiteSpace=wrap;html=1;" parent="1" vertex="1">
          <mxGeometry x="810" y="265" width="70" height="30" as="geometry" />
        </mxCell>
        <mxCell id="L9DdGGGKMgnVzfjOgFJ2-68" value="&lt;div&gt;&lt;br&gt;&lt;/div&gt;For Renters&lt;div&gt;Only&lt;/div&gt;" style="rhombus;whiteSpace=wrap;html=1;" parent="1" vertex="1">
          <mxGeometry x="600" y="240" width="80" height="80" as="geometry" />
        </mxCell>
        <mxCell id="L9DdGGGKMgnVzfjOgFJ2-69" value="" style="endArrow=none;html=1;rounded=0;entryX=1;entryY=0.5;entryDx=0;entryDy=0;exitX=0;exitY=0.5;exitDx=0;exitDy=0;" parent="1" source="L9DdGGGKMgnVzfjOgFJ2-67" target="L9DdGGGKMgnVzfjOgFJ2-68" edge="1">
          <mxGeometry width="50" height="50" relative="1" as="geometry">
            <mxPoint x="649.5799999999999" y="525" as="sourcePoint" />
            <mxPoint x="649.5799999999999" y="455" as="targetPoint" />
          </mxGeometry>
        </mxCell>
        <mxCell id="L9DdGGGKMgnVzfjOgFJ2-70" value="n" style="edgeLabel;html=1;align=center;verticalAlign=middle;resizable=0;points=[];" parent="L9DdGGGKMgnVzfjOgFJ2-69" vertex="1" connectable="0">
          <mxGeometry x="-0.0706" y="1" relative="1" as="geometry">
            <mxPoint as="offset" />
          </mxGeometry>
        </mxCell>
        <mxCell id="L9DdGGGKMgnVzfjOgFJ2-72" value="" style="endArrow=none;html=1;rounded=0;entryX=1;entryY=1;entryDx=0;entryDy=0;exitX=1;exitY=0;exitDx=0;exitDy=0;" parent="1" source="L9DdGGGKMgnVzfjOgFJ2-67" target="L9DdGGGKMgnVzfjOgFJ2-73" edge="1">
          <mxGeometry width="50" height="50" relative="1" as="geometry">
            <mxPoint x="840" y="332" as="sourcePoint" />
            <mxPoint x="826.3499999999999" y="179" as="targetPoint" />
          </mxGeometry>
        </mxCell>
        <mxCell id="L9DdGGGKMgnVzfjOgFJ2-73" value="BookingID  " style="ellipse;whiteSpace=wrap;html=1;" parent="1" vertex="1">
          <mxGeometry x="755.36" y="180" width="70" height="30" as="geometry" />
        </mxCell>
        <mxCell id="L9DdGGGKMgnVzfjOgFJ2-74" value="" style="endArrow=none;html=1;rounded=0;entryX=1;entryY=1;entryDx=0;entryDy=0;exitX=1;exitY=0;exitDx=0;exitDy=0;" parent="1" source="L9DdGGGKMgnVzfjOgFJ2-67" target="L9DdGGGKMgnVzfjOgFJ2-75" edge="1">
          <mxGeometry width="50" height="50" relative="1" as="geometry">
            <mxPoint x="1010" y="192" as="sourcePoint" />
            <mxPoint x="956.3499999999999" y="106" as="targetPoint" />
            <Array as="points" />
          </mxGeometry>
        </mxCell>
        <mxCell id="L9DdGGGKMgnVzfjOgFJ2-75" value="CarID  " style="ellipse;whiteSpace=wrap;html=1;" parent="1" vertex="1">
          <mxGeometry x="755.36" y="141.5" width="70" height="30" as="geometry" />
        </mxCell>
        <mxCell id="L9DdGGGKMgnVzfjOgFJ2-76" value="" style="endArrow=none;html=1;rounded=0;entryX=0.5;entryY=1;entryDx=0;entryDy=0;exitX=1;exitY=0;exitDx=0;exitDy=0;" parent="1" source="L9DdGGGKMgnVzfjOgFJ2-67" target="L9DdGGGKMgnVzfjOgFJ2-77" edge="1">
          <mxGeometry width="50" height="50" relative="1" as="geometry">
            <mxPoint x="880" y="260" as="sourcePoint" />
            <mxPoint x="956.3499999999999" y="14" as="targetPoint" />
          </mxGeometry>
        </mxCell>
        <mxCell id="L9DdGGGKMgnVzfjOgFJ2-77" value="EndDate " style="ellipse;whiteSpace=wrap;html=1;" parent="1" vertex="1">
          <mxGeometry x="890" y="106.5" width="70" height="30" as="geometry" />
        </mxCell>
        <mxCell id="L9DdGGGKMgnVzfjOgFJ2-78" value="" style="endArrow=none;html=1;rounded=0;exitX=1;exitY=0;exitDx=0;exitDy=0;" parent="1" source="L9DdGGGKMgnVzfjOgFJ2-67" target="L9DdGGGKMgnVzfjOgFJ2-79" edge="1">
          <mxGeometry width="50" height="50" relative="1" as="geometry">
            <mxPoint x="930" y="116.5" as="sourcePoint" />
            <mxPoint x="876.3499999999999" y="30.5" as="targetPoint" />
          </mxGeometry>
        </mxCell>
        <mxCell id="L9DdGGGKMgnVzfjOgFJ2-79" value="StartDate " style="ellipse;whiteSpace=wrap;html=1;" parent="1" vertex="1">
          <mxGeometry x="840.36" y="136.5" width="70" height="30" as="geometry" />
        </mxCell>
        <mxCell id="L9DdGGGKMgnVzfjOgFJ2-80" value="" style="endArrow=none;html=1;rounded=0;entryX=0.5;entryY=1;entryDx=0;entryDy=0;exitX=1;exitY=0;exitDx=0;exitDy=0;" parent="1" source="L9DdGGGKMgnVzfjOgFJ2-67" target="L9DdGGGKMgnVzfjOgFJ2-81" edge="1">
          <mxGeometry width="50" height="50" relative="1" as="geometry">
            <mxPoint x="840" y="140" as="sourcePoint" />
            <mxPoint x="786.3499999999999" y="54" as="targetPoint" />
          </mxGeometry>
        </mxCell>
        <mxCell id="L9DdGGGKMgnVzfjOgFJ2-81" value="RenterID  " style="ellipse;whiteSpace=wrap;html=1;" parent="1" vertex="1">
          <mxGeometry x="790" y="111.5" width="70" height="30" as="geometry" />
        </mxCell>
        <mxCell id="L9DdGGGKMgnVzfjOgFJ2-82" value="" style="endArrow=none;html=1;rounded=0;entryX=0.227;entryY=0.961;entryDx=0;entryDy=0;exitX=1;exitY=0;exitDx=0;exitDy=0;entryPerimeter=0;" parent="1" source="L9DdGGGKMgnVzfjOgFJ2-67" target="L9DdGGGKMgnVzfjOgFJ2-83" edge="1">
          <mxGeometry width="50" height="50" relative="1" as="geometry">
            <mxPoint x="880" y="260" as="sourcePoint" />
            <mxPoint x="1006.3499999999999" y="50.5" as="targetPoint" />
          </mxGeometry>
        </mxCell>
        <mxCell id="L9DdGGGKMgnVzfjOgFJ2-83" value="TotalPrice " style="ellipse;whiteSpace=wrap;html=1;" parent="1" vertex="1">
          <mxGeometry x="925" y="146.5" width="70" height="30" as="geometry" />
        </mxCell>
        <mxCell id="L9DdGGGKMgnVzfjOgFJ2-84" value="" style="endArrow=none;html=1;rounded=0;entryX=0;entryY=1;entryDx=0;entryDy=0;exitX=1;exitY=0;exitDx=0;exitDy=0;" parent="1" source="L9DdGGGKMgnVzfjOgFJ2-67" target="L9DdGGGKMgnVzfjOgFJ2-85" edge="1">
          <mxGeometry width="50" height="50" relative="1" as="geometry">
            <mxPoint x="920" y="300" as="sourcePoint" />
            <mxPoint x="1046.35" y="85.5" as="targetPoint" />
          </mxGeometry>
        </mxCell>
        <mxCell id="L9DdGGGKMgnVzfjOgFJ2-85" value="Status  " style="ellipse;whiteSpace=wrap;html=1;" parent="1" vertex="1">
          <mxGeometry x="930" y="191" width="70" height="30" as="geometry" />
        </mxCell>
        <mxCell id="L9DdGGGKMgnVzfjOgFJ2-86" value="" style="endArrow=none;html=1;rounded=0;entryX=0;entryY=0.5;entryDx=0;entryDy=0;exitX=1;exitY=0;exitDx=0;exitDy=0;" parent="1" source="L9DdGGGKMgnVzfjOgFJ2-67" target="L9DdGGGKMgnVzfjOgFJ2-87" edge="1">
          <mxGeometry width="50" height="50" relative="1" as="geometry">
            <mxPoint x="930" y="365.5" as="sourcePoint" />
            <mxPoint x="1056.35" y="151" as="targetPoint" />
          </mxGeometry>
        </mxCell>
        <mxCell id="L9DdGGGKMgnVzfjOgFJ2-87" value="CreatedAt " style="ellipse;whiteSpace=wrap;html=1;" parent="1" vertex="1">
          <mxGeometry x="1020" y="210" width="80" height="30" as="geometry" />
        </mxCell>
        <mxCell id="L9DdGGGKMgnVzfjOgFJ2-89" value="" style="endArrow=none;html=1;rounded=0;entryX=0;entryY=0.5;entryDx=0;entryDy=0;exitX=1;exitY=0;exitDx=0;exitDy=0;" parent="1" source="L9DdGGGKMgnVzfjOgFJ2-67" target="L9DdGGGKMgnVzfjOgFJ2-90" edge="1">
          <mxGeometry width="50" height="50" relative="1" as="geometry">
            <mxPoint x="880" y="270" as="sourcePoint" />
            <mxPoint x="1056.35" y="191" as="targetPoint" />
          </mxGeometry>
        </mxCell>
        <mxCell id="L9DdGGGKMgnVzfjOgFJ2-90" value="UpdatedAt " style="ellipse;whiteSpace=wrap;html=1;" parent="1" vertex="1">
          <mxGeometry x="970" y="240" width="80" height="30" as="geometry" />
        </mxCell>
        <mxCell id="L9DdGGGKMgnVzfjOgFJ2-93" value="" style="endArrow=none;html=1;rounded=0;entryX=0.5;entryY=1;entryDx=0;entryDy=0;exitX=0.973;exitY=0.326;exitDx=0;exitDy=0;exitPerimeter=0;" parent="1" source="L9DdGGGKMgnVzfjOgFJ2-85" target="L9DdGGGKMgnVzfjOgFJ2-94" edge="1">
          <mxGeometry width="50" height="50" relative="1" as="geometry">
            <mxPoint x="1020" y="192.5" as="sourcePoint" />
            <mxPoint x="1156.35" y="33" as="targetPoint" />
          </mxGeometry>
        </mxCell>
        <mxCell id="L9DdGGGKMgnVzfjOgFJ2-94" value="Confirmed  " style="ellipse;whiteSpace=wrap;html=1;" parent="1" vertex="1">
          <mxGeometry x="970" y="111.5" width="70" height="30" as="geometry" />
        </mxCell>
        <mxCell id="L9DdGGGKMgnVzfjOgFJ2-95" value="" style="endArrow=none;html=1;rounded=0;entryX=0;entryY=1;entryDx=0;entryDy=0;exitX=0.971;exitY=0.348;exitDx=0;exitDy=0;exitPerimeter=0;" parent="1" source="L9DdGGGKMgnVzfjOgFJ2-85" target="L9DdGGGKMgnVzfjOgFJ2-96" edge="1">
          <mxGeometry width="50" height="50" relative="1" as="geometry">
            <mxPoint x="1020" y="224.75" as="sourcePoint" />
            <mxPoint x="1167.35" y="70.75" as="targetPoint" />
          </mxGeometry>
        </mxCell>
        <mxCell id="L9DdGGGKMgnVzfjOgFJ2-96" value="Canceled  " style="ellipse;whiteSpace=wrap;html=1;" parent="1" vertex="1">
          <mxGeometry x="1025" y="135.25" width="70" height="30" as="geometry" />
        </mxCell>
        <mxCell id="L9DdGGGKMgnVzfjOgFJ2-97" value="" style="endArrow=none;html=1;rounded=0;entryX=0.035;entryY=0.487;entryDx=0;entryDy=0;exitX=1.008;exitY=0.4;exitDx=0;exitDy=0;exitPerimeter=0;entryPerimeter=0;" parent="1" source="L9DdGGGKMgnVzfjOgFJ2-85" target="L9DdGGGKMgnVzfjOgFJ2-98" edge="1">
          <mxGeometry width="50" height="50" relative="1" as="geometry">
            <mxPoint x="1010" y="226" as="sourcePoint" />
            <mxPoint x="1169.35" y="106.75" as="targetPoint" />
          </mxGeometry>
        </mxCell>
        <mxCell id="L9DdGGGKMgnVzfjOgFJ2-98" value="Modified  " style="ellipse;whiteSpace=wrap;html=1;" parent="1" vertex="1">
          <mxGeometry x="1060" y="170" width="70" height="30" as="geometry" />
        </mxCell>
        <mxCell id="L9DdGGGKMgnVzfjOgFJ2-99" value="" style="endArrow=none;html=1;rounded=0;entryX=1;entryY=0.5;entryDx=0;entryDy=0;exitX=0;exitY=0.5;exitDx=0;exitDy=0;" parent="1" source="L9DdGGGKMgnVzfjOgFJ2-101" target="L9DdGGGKMgnVzfjOgFJ2-32" edge="1">
          <mxGeometry width="50" height="50" relative="1" as="geometry">
            <mxPoint x="680" y="521" as="sourcePoint" />
            <mxPoint x="470" y="473" as="targetPoint" />
          </mxGeometry>
        </mxCell>
        <mxCell id="L9DdGGGKMgnVzfjOgFJ2-100" value="1" style="edgeLabel;html=1;align=center;verticalAlign=middle;resizable=0;points=[];" parent="L9DdGGGKMgnVzfjOgFJ2-99" vertex="1" connectable="0">
          <mxGeometry x="-0.3714" relative="1" as="geometry">
            <mxPoint as="offset" />
          </mxGeometry>
        </mxCell>
        <mxCell id="L9DdGGGKMgnVzfjOgFJ2-101" value="&lt;div&gt;&lt;br&gt;&lt;/div&gt;For Renters&lt;div&gt;Only&lt;/div&gt;" style="rhombus;whiteSpace=wrap;html=1;rotation=-30;" parent="1" vertex="1">
          <mxGeometry x="600" y="380" width="80" height="80" as="geometry" />
        </mxCell>
        <mxCell id="L9DdGGGKMgnVzfjOgFJ2-102" value="" style="endArrow=none;html=1;rounded=0;entryX=1;entryY=0.5;entryDx=0;entryDy=0;exitX=0.429;exitY=0.977;exitDx=0;exitDy=0;exitPerimeter=0;" parent="1" source="L9DdGGGKMgnVzfjOgFJ2-67" target="L9DdGGGKMgnVzfjOgFJ2-101" edge="1">
          <mxGeometry width="50" height="50" relative="1" as="geometry">
            <mxPoint x="840" y="473" as="sourcePoint" />
            <mxPoint x="679.5799999999999" y="648" as="targetPoint" />
          </mxGeometry>
        </mxCell>
        <mxCell id="L9DdGGGKMgnVzfjOgFJ2-103" value="n" style="edgeLabel;html=1;align=center;verticalAlign=middle;resizable=0;points=[];" parent="L9DdGGGKMgnVzfjOgFJ2-102" vertex="1" connectable="0">
          <mxGeometry x="-0.0706" y="1" relative="1" as="geometry">
            <mxPoint as="offset" />
          </mxGeometry>
        </mxCell>
        <mxCell id="L9DdGGGKMgnVzfjOgFJ2-105" value="" style="endArrow=none;html=1;rounded=0;exitX=0.5;exitY=0;exitDx=0;exitDy=0;entryX=0.577;entryY=1.019;entryDx=0;entryDy=0;entryPerimeter=0;" parent="1" source="L9DdGGGKMgnVzfjOgFJ2-107" target="L9DdGGGKMgnVzfjOgFJ2-67" edge="1">
          <mxGeometry width="50" height="50" relative="1" as="geometry">
            <mxPoint x="850" y="358" as="sourcePoint" />
            <mxPoint x="860" y="310" as="targetPoint" />
          </mxGeometry>
        </mxCell>
        <mxCell id="L9DdGGGKMgnVzfjOgFJ2-106" value="1" style="edgeLabel;html=1;align=center;verticalAlign=middle;resizable=0;points=[];" parent="L9DdGGGKMgnVzfjOgFJ2-105" vertex="1" connectable="0">
          <mxGeometry x="-0.3714" relative="1" as="geometry">
            <mxPoint as="offset" />
          </mxGeometry>
        </mxCell>
        <mxCell id="L9DdGGGKMgnVzfjOgFJ2-107" value="&lt;div&gt;&lt;br&gt;&lt;/div&gt;For Hosts&lt;div&gt;Only&lt;/div&gt;" style="rhombus;whiteSpace=wrap;html=1;" parent="1" vertex="1">
          <mxGeometry x="810" y="368" width="80" height="80" as="geometry" />
        </mxCell>
        <mxCell id="L9DdGGGKMgnVzfjOgFJ2-108" value="" style="endArrow=none;html=1;rounded=0;entryX=0.5;entryY=1;entryDx=0;entryDy=0;exitX=0.5;exitY=0;exitDx=0;exitDy=0;" parent="1" source="L9DdGGGKMgnVzfjOgFJ2-110" target="L9DdGGGKMgnVzfjOgFJ2-107" edge="1">
          <mxGeometry width="50" height="50" relative="1" as="geometry">
            <mxPoint x="850" y="533" as="sourcePoint" />
            <mxPoint x="849.5799999999999" y="485" as="targetPoint" />
          </mxGeometry>
        </mxCell>
        <mxCell id="L9DdGGGKMgnVzfjOgFJ2-109" value="1" style="edgeLabel;html=1;align=center;verticalAlign=middle;resizable=0;points=[];" parent="L9DdGGGKMgnVzfjOgFJ2-108" vertex="1" connectable="0">
          <mxGeometry x="-0.0706" y="1" relative="1" as="geometry">
            <mxPoint as="offset" />
          </mxGeometry>
        </mxCell>
        <mxCell id="L9DdGGGKMgnVzfjOgFJ2-110" value="PAYMENT" style="rounded=0;whiteSpace=wrap;html=1;" parent="1" vertex="1">
          <mxGeometry x="815" y="535" width="70" height="30" as="geometry" />
        </mxCell>
        <mxCell id="L9DdGGGKMgnVzfjOgFJ2-111" value="" style="endArrow=none;html=1;rounded=0;entryX=0;entryY=0;entryDx=0;entryDy=0;exitX=0.5;exitY=1;exitDx=0;exitDy=0;" parent="1" source="L9DdGGGKMgnVzfjOgFJ2-110" target="L9DdGGGKMgnVzfjOgFJ2-112" edge="1">
          <mxGeometry width="50" height="50" relative="1" as="geometry">
            <mxPoint x="950" y="535" as="sourcePoint" />
            <mxPoint x="1126.35" y="461" as="targetPoint" />
          </mxGeometry>
        </mxCell>
        <mxCell id="L9DdGGGKMgnVzfjOgFJ2-112" value="&lt;span style=&quot;color: rgba(0, 0, 0, 0); font-family: monospace; font-size: 0px; text-align: start; text-wrap-mode: nowrap;&quot;&gt;%3CmxGraphModel%3E%3Croot%3E%3CmxCell%20id%3D%220%22%2F%3E%3CmxCell%20id%3D%221%22%20parent%3D%220%22%2F%3E%3CmxCell%20id%3D%222%22%20value%3D%22%22%20style%3D%22endArrow%3Dnone%3Bhtml%3D1%3Brounded%3D0%3BentryX%3D0%3BentryY%3D0.5%3BentryDx%3D0%3BentryDy%3D0%3BexitX%3D1%3BexitY%3D0%3BexitDx%3D0%3BexitDy%3D0%3B%22%20edge%3D%221%22%20target%3D%223%22%20parent%3D%221%22%3E%3CmxGeometry%20width%3D%2250%22%20height%3D%2250%22%20relative%3D%221%22%20as%3D%22geometry%22%3E%3CmxPoint%20x%3D%22880%22%20y%3D%22265%22%20as%3D%22sourcePoint%22%2F%3E%3CmxPoint%20x%3D%221056.35%22%20y%3D%22191%22%20as%3D%22targetPoint%22%2F%3E%3C%2FmxGeometry%3E%3C%2FmxCell%3E%3CmxCell%20id%3D%223%22%20value%3D%22UpdatedAt%20%22%20style%3D%22ellipse%3BwhiteSpace%3Dwrap%3Bhtml%3D1%3B%22%20vertex%3D%221%22%20parent%3D%221%22%3E%3CmxGeometry%20x%3D%22940%22%20y%3D%22260%22%20width%3D%2280%22%20height%3D%2230%22%20as%3D%22geometry%22%2F%3E%3C%2FmxCell%3E%3C%2Froot%3E%3C%2FmxGraphModel%3E&lt;/span&gt;PaymentID&amp;nbsp;" style="ellipse;whiteSpace=wrap;html=1;" parent="1" vertex="1">
          <mxGeometry x="925" y="571.5" width="80" height="30" as="geometry" />
        </mxCell>
        <mxCell id="L9DdGGGKMgnVzfjOgFJ2-113" value="" style="endArrow=none;html=1;rounded=0;entryX=0.384;entryY=0.118;entryDx=0;entryDy=0;exitX=0.5;exitY=1;exitDx=0;exitDy=0;entryPerimeter=0;" parent="1" source="L9DdGGGKMgnVzfjOgFJ2-110" target="L9DdGGGKMgnVzfjOgFJ2-114" edge="1">
          <mxGeometry width="50" height="50" relative="1" as="geometry">
            <mxPoint x="960" y="515" as="sourcePoint" />
            <mxPoint x="1201.35" y="441" as="targetPoint" />
          </mxGeometry>
        </mxCell>
        <mxCell id="L9DdGGGKMgnVzfjOgFJ2-114" value="BookingID&amp;nbsp;" style="ellipse;whiteSpace=wrap;html=1;" parent="1" vertex="1">
          <mxGeometry x="900" y="610" width="80" height="30" as="geometry" />
        </mxCell>
        <mxCell id="L9DdGGGKMgnVzfjOgFJ2-115" value="" style="endArrow=none;html=1;rounded=0;entryX=0;entryY=0;entryDx=0;entryDy=0;exitX=0.5;exitY=1;exitDx=0;exitDy=0;" parent="1" source="L9DdGGGKMgnVzfjOgFJ2-110" target="L9DdGGGKMgnVzfjOgFJ2-116" edge="1">
          <mxGeometry width="50" height="50" relative="1" as="geometry">
            <mxPoint x="920" y="567" as="sourcePoint" />
            <mxPoint x="1236.35" y="473" as="targetPoint" />
          </mxGeometry>
        </mxCell>
        <mxCell id="L9DdGGGKMgnVzfjOgFJ2-116" value="PaymentDate" style="ellipse;whiteSpace=wrap;html=1;" parent="1" vertex="1">
          <mxGeometry x="870" y="646" width="90" height="30" as="geometry" />
        </mxCell>
        <mxCell id="L9DdGGGKMgnVzfjOgFJ2-117" value="" style="endArrow=none;html=1;rounded=0;entryX=0.5;entryY=0;entryDx=0;entryDy=0;exitX=0.5;exitY=1;exitDx=0;exitDy=0;" parent="1" source="L9DdGGGKMgnVzfjOgFJ2-110" target="L9DdGGGKMgnVzfjOgFJ2-118" edge="1">
          <mxGeometry width="50" height="50" relative="1" as="geometry">
            <mxPoint x="910" y="569" as="sourcePoint" />
            <mxPoint x="1261.35" y="507" as="targetPoint" />
          </mxGeometry>
        </mxCell>
        <mxCell id="L9DdGGGKMgnVzfjOgFJ2-118" value="Amount" style="ellipse;whiteSpace=wrap;html=1;" parent="1" vertex="1">
          <mxGeometry x="820" y="676" width="80" height="30" as="geometry" />
        </mxCell>
        <mxCell id="L9DdGGGKMgnVzfjOgFJ2-119" value="" style="endArrow=none;html=1;rounded=0;entryX=0.423;entryY=0.05;entryDx=0;entryDy=0;exitX=0.5;exitY=1;exitDx=0;exitDy=0;entryPerimeter=0;" parent="1" source="L9DdGGGKMgnVzfjOgFJ2-110" target="L9DdGGGKMgnVzfjOgFJ2-120" edge="1">
          <mxGeometry width="50" height="50" relative="1" as="geometry">
            <mxPoint x="880" y="571" as="sourcePoint" />
            <mxPoint x="1256.35" y="543" as="targetPoint" />
          </mxGeometry>
        </mxCell>
        <mxCell id="L9DdGGGKMgnVzfjOgFJ2-120" value="PaymentMethod&amp;nbsp;" style="ellipse;whiteSpace=wrap;html=1;" parent="1" vertex="1">
          <mxGeometry x="740" y="646" width="110" height="30" as="geometry" />
        </mxCell>
        <mxCell id="L9DdGGGKMgnVzfjOgFJ2-121" value="" style="endArrow=none;html=1;rounded=0;entryX=0.536;entryY=0.033;entryDx=0;entryDy=0;exitX=0.5;exitY=1;exitDx=0;exitDy=0;entryPerimeter=0;" parent="1" source="L9DdGGGKMgnVzfjOgFJ2-110" target="L9DdGGGKMgnVzfjOgFJ2-122" edge="1">
          <mxGeometry width="50" height="50" relative="1" as="geometry">
            <mxPoint x="872.5" y="569" as="sourcePoint" />
            <mxPoint x="1243.85" y="577" as="targetPoint" />
          </mxGeometry>
        </mxCell>
        <mxCell id="L9DdGGGKMgnVzfjOgFJ2-122" value="PaymentStatus&amp;nbsp;" style="ellipse;whiteSpace=wrap;html=1;" parent="1" vertex="1">
          <mxGeometry x="677.5" y="610" width="112.5" height="30" as="geometry" />
        </mxCell>
        <mxCell id="L9DdGGGKMgnVzfjOgFJ2-123" value="" style="endArrow=none;html=1;rounded=0;entryX=0.65;entryY=0.046;entryDx=0;entryDy=0;exitX=0.5;exitY=1;exitDx=0;exitDy=0;entryPerimeter=0;" parent="1" source="L9DdGGGKMgnVzfjOgFJ2-110" target="L9DdGGGKMgnVzfjOgFJ2-124" edge="1">
          <mxGeometry width="50" height="50" relative="1" as="geometry">
            <mxPoint x="860" y="569.5" as="sourcePoint" />
            <mxPoint x="1218.85" y="611.5" as="targetPoint" />
          </mxGeometry>
        </mxCell>
        <mxCell id="L9DdGGGKMgnVzfjOgFJ2-124" value="RefundStatus " style="ellipse;whiteSpace=wrap;html=1;" parent="1" vertex="1">
          <mxGeometry x="660" y="571.5" width="90" height="30" as="geometry" />
        </mxCell>
        <mxCell id="uSfccBBa-PWIp4v0e1si-1" value="" style="endArrow=none;html=1;rounded=0;entryX=0;entryY=0.25;entryDx=0;entryDy=0;exitX=1;exitY=0.5;exitDx=0;exitDy=0;" edge="1" parent="1" source="uSfccBBa-PWIp4v0e1si-97" target="L9DdGGGKMgnVzfjOgFJ2-67">
          <mxGeometry width="50" height="50" relative="1" as="geometry">
            <mxPoint x="658.2842712474617" y="93.2842712474619" as="sourcePoint" />
            <mxPoint x="793.75" y="265" as="targetPoint" />
          </mxGeometry>
        </mxCell>
        <mxCell id="uSfccBBa-PWIp4v0e1si-95" value="1" style="edgeLabel;html=1;align=center;verticalAlign=middle;resizable=0;points=[];" vertex="1" connectable="0" parent="uSfccBBa-PWIp4v0e1si-1">
          <mxGeometry x="-0.2558" relative="1" as="geometry">
            <mxPoint x="1" as="offset" />
          </mxGeometry>
        </mxCell>
        <mxCell id="uSfccBBa-PWIp4v0e1si-3" value="" style="endArrow=none;html=1;rounded=0;entryX=0.513;entryY=0.038;entryDx=0;entryDy=0;exitX=0.442;exitY=0.969;exitDx=0;exitDy=0;exitPerimeter=0;entryPerimeter=0;" edge="1" parent="1" source="uSfccBBa-PWIp4v0e1si-16" target="uSfccBBa-PWIp4v0e1si-97">
          <mxGeometry width="50" height="50" relative="1" as="geometry">
            <mxPoint x="635.36" y="-246" as="sourcePoint" />
            <mxPoint x="629.9999999999998" y="36.7157287525381" as="targetPoint" />
          </mxGeometry>
        </mxCell>
        <mxCell id="uSfccBBa-PWIp4v0e1si-93" value="n" style="edgeLabel;html=1;align=center;verticalAlign=middle;resizable=0;points=[];" vertex="1" connectable="0" parent="uSfccBBa-PWIp4v0e1si-3">
          <mxGeometry x="0.1161" y="1" relative="1" as="geometry">
            <mxPoint as="offset" />
          </mxGeometry>
        </mxCell>
        <mxCell id="uSfccBBa-PWIp4v0e1si-96" value="Text" style="edgeLabel;html=1;align=center;verticalAlign=middle;resizable=0;points=[];" vertex="1" connectable="0" parent="uSfccBBa-PWIp4v0e1si-3">
          <mxGeometry x="0.377" y="-3" relative="1" as="geometry">
            <mxPoint as="offset" />
          </mxGeometry>
        </mxCell>
        <mxCell id="uSfccBBa-PWIp4v0e1si-16" value="REVIEW" style="rounded=0;whiteSpace=wrap;html=1;" vertex="1" parent="1">
          <mxGeometry x="600" y="-140" width="70" height="30" as="geometry" />
        </mxCell>
        <mxCell id="uSfccBBa-PWIp4v0e1si-17" value="" style="endArrow=none;html=1;rounded=0;entryX=1;entryY=0.5;entryDx=0;entryDy=0;exitX=0.5;exitY=0;exitDx=0;exitDy=0;" edge="1" parent="1" target="uSfccBBa-PWIp4v0e1si-30" source="uSfccBBa-PWIp4v0e1si-16">
          <mxGeometry width="50" height="50" relative="1" as="geometry">
            <mxPoint x="615" y="-150" as="sourcePoint" />
            <mxPoint x="528.3599999999996" y="-77.9899999999999" as="targetPoint" />
          </mxGeometry>
        </mxCell>
        <mxCell id="uSfccBBa-PWIp4v0e1si-19" value="" style="endArrow=none;html=1;rounded=0;entryX=0.725;entryY=0.217;entryDx=0;entryDy=0;exitX=0.5;exitY=0;exitDx=0;exitDy=0;entryPerimeter=0;" edge="1" parent="1" target="uSfccBBa-PWIp4v0e1si-20" source="uSfccBBa-PWIp4v0e1si-16">
          <mxGeometry width="50" height="50" relative="1" as="geometry">
            <mxPoint x="635.36" y="-89.99999999999989" as="sourcePoint" />
            <mxPoint x="816.7099999999999" y="-152" as="targetPoint" />
          </mxGeometry>
        </mxCell>
        <mxCell id="uSfccBBa-PWIp4v0e1si-20" value="BookingID " style="ellipse;whiteSpace=wrap;html=1;" vertex="1" parent="1">
          <mxGeometry x="520" y="-210" width="80" height="30" as="geometry" />
        </mxCell>
        <mxCell id="uSfccBBa-PWIp4v0e1si-21" value="" style="endArrow=none;html=1;rounded=0;entryX=0.437;entryY=0.038;entryDx=0;entryDy=0;exitX=0.5;exitY=0;exitDx=0;exitDy=0;entryPerimeter=0;" edge="1" parent="1" target="uSfccBBa-PWIp4v0e1si-22" source="uSfccBBa-PWIp4v0e1si-16">
          <mxGeometry width="50" height="50" relative="1" as="geometry">
            <mxPoint x="895.36" y="18.75" as="sourcePoint" />
            <mxPoint x="1066.71" y="-53.75" as="targetPoint" />
          </mxGeometry>
        </mxCell>
        <mxCell id="uSfccBBa-PWIp4v0e1si-22" value="Rating " style="ellipse;whiteSpace=wrap;html=1;" vertex="1" parent="1">
          <mxGeometry x="630" y="-270" width="80" height="30" as="geometry" />
        </mxCell>
        <mxCell id="uSfccBBa-PWIp4v0e1si-23" value="" style="endArrow=none;html=1;rounded=0;entryX=0.725;entryY=0.217;entryDx=0;entryDy=0;entryPerimeter=0;exitX=0.5;exitY=0;exitDx=0;exitDy=0;" edge="1" parent="1" target="uSfccBBa-PWIp4v0e1si-24" source="uSfccBBa-PWIp4v0e1si-16">
          <mxGeometry width="50" height="50" relative="1" as="geometry">
            <mxPoint x="625" y="-150" as="sourcePoint" />
            <mxPoint x="936.71" y="-68.5" as="targetPoint" />
          </mxGeometry>
        </mxCell>
        <mxCell id="uSfccBBa-PWIp4v0e1si-24" value="&lt;span style=&quot;color: rgba(0, 0, 0, 0); font-family: monospace; font-size: 0px; text-align: start; text-wrap-mode: nowrap;&quot;&gt;%3CmxGraphModel%3E%3Croot%3E%3CmxCell%20id%3D%220%22%2F%3E%3CmxCell%20id%3D%221%22%20parent%3D%220%22%2F%3E%3CmxCell%20id%3D%222%22%20value%3D%22%22%20style%3D%22endArrow%3Dnone%3Bhtml%3D1%3Brounded%3D0%3BentryX%3D0%3BentryY%3D0.5%3BentryDx%3D0%3BentryDy%3D0%3BexitX%3D1%3BexitY%3D0%3BexitDx%3D0%3BexitDy%3D0%3B%22%20edge%3D%221%22%20target%3D%223%22%20parent%3D%221%22%3E%3CmxGeometry%20width%3D%2250%22%20height%3D%2250%22%20relative%3D%221%22%20as%3D%22geometry%22%3E%3CmxPoint%20x%3D%22880%22%20y%3D%22265%22%20as%3D%22sourcePoint%22%2F%3E%3CmxPoint%20x%3D%221056.35%22%20y%3D%22191%22%20as%3D%22targetPoint%22%2F%3E%3C%2FmxGeometry%3E%3C%2FmxCell%3E%3CmxCell%20id%3D%223%22%20value%3D%22UpdatedAt%20%22%20style%3D%22ellipse%3BwhiteSpace%3Dwrap%3Bhtml%3D1%3B%22%20vertex%3D%221%22%20parent%3D%221%22%3E%3CmxGeometry%20x%3D%22940%22%20y%3D%22260%22%20width%3D%2280%22%20height%3D%2230%22%20as%3D%22geometry%22%2F%3E%3C%2FmxCell%3E%3C%2Froot%3E%3C%2FmxGraphModel%&lt;/span&gt;ReviewerID&amp;nbsp;" style="ellipse;whiteSpace=wrap;html=1;" vertex="1" parent="1">
          <mxGeometry x="555" y="-250" width="80" height="30" as="geometry" />
        </mxCell>
        <mxCell id="uSfccBBa-PWIp4v0e1si-25" value="" style="endArrow=none;html=1;rounded=0;entryX=0.423;entryY=0.131;entryDx=0;entryDy=0;exitX=0.5;exitY=0;exitDx=0;exitDy=0;entryPerimeter=0;" edge="1" parent="1" target="uSfccBBa-PWIp4v0e1si-26" source="uSfccBBa-PWIp4v0e1si-16">
          <mxGeometry width="50" height="50" relative="1" as="geometry">
            <mxPoint x="560.36" y="84" as="sourcePoint" />
            <mxPoint x="731.7099999999999" y="11.5" as="targetPoint" />
          </mxGeometry>
        </mxCell>
        <mxCell id="uSfccBBa-PWIp4v0e1si-26" value="Comments&amp;nbsp;" style="ellipse;whiteSpace=wrap;html=1;" vertex="1" parent="1">
          <mxGeometry x="685" y="-230" width="80" height="30" as="geometry" />
        </mxCell>
        <mxCell id="uSfccBBa-PWIp4v0e1si-28" value="" style="endArrow=none;html=1;rounded=0;entryX=0.423;entryY=0.131;entryDx=0;entryDy=0;exitX=0.5;exitY=0;exitDx=0;exitDy=0;entryPerimeter=0;" edge="1" parent="1" target="uSfccBBa-PWIp4v0e1si-29" source="uSfccBBa-PWIp4v0e1si-16">
          <mxGeometry width="50" height="50" relative="1" as="geometry">
            <mxPoint x="660.36" y="-159.5" as="sourcePoint" />
            <mxPoint x="766.7099999999999" y="-34" as="targetPoint" />
          </mxGeometry>
        </mxCell>
        <mxCell id="uSfccBBa-PWIp4v0e1si-29" value="CreatedAt" style="ellipse;whiteSpace=wrap;html=1;" vertex="1" parent="1">
          <mxGeometry x="710" y="-190" width="80" height="30" as="geometry" />
        </mxCell>
        <mxCell id="uSfccBBa-PWIp4v0e1si-30" value="ReviewID&amp;nbsp;" style="ellipse;whiteSpace=wrap;html=1;" vertex="1" parent="1">
          <mxGeometry x="480" y="-170" width="80" height="30" as="geometry" />
        </mxCell>
        <mxCell id="uSfccBBa-PWIp4v0e1si-31" value="" style="endArrow=none;html=1;rounded=0;entryX=1;entryY=1;entryDx=0;entryDy=0;exitX=0.5;exitY=0;exitDx=0;exitDy=0;" edge="1" parent="1" source="uSfccBBa-PWIp4v0e1si-32" target="L9DdGGGKMgnVzfjOgFJ2-32">
          <mxGeometry width="50" height="50" relative="1" as="geometry">
            <mxPoint x="673.25" y="814.5" as="sourcePoint" />
            <mxPoint x="525" y="749.5" as="targetPoint" />
          </mxGeometry>
        </mxCell>
        <mxCell id="uSfccBBa-PWIp4v0e1si-32" value="" style="rhombus;whiteSpace=wrap;html=1;rotation=0;" vertex="1" parent="1">
          <mxGeometry x="560" y="692.5" width="80" height="80" as="geometry" />
        </mxCell>
        <mxCell id="uSfccBBa-PWIp4v0e1si-33" value="" style="endArrow=none;html=1;rounded=0;entryX=0.5;entryY=1;entryDx=0;entryDy=0;exitX=0.5;exitY=0;exitDx=0;exitDy=0;" edge="1" parent="1" target="uSfccBBa-PWIp4v0e1si-32" source="uSfccBBa-PWIp4v0e1si-34">
          <mxGeometry width="50" height="50" relative="1" as="geometry">
            <mxPoint x="600" y="850" as="sourcePoint" />
            <mxPoint x="748.25" y="864.5" as="targetPoint" />
          </mxGeometry>
        </mxCell>
        <mxCell id="uSfccBBa-PWIp4v0e1si-34" value="LOCATION" style="rounded=0;whiteSpace=wrap;html=1;" vertex="1" parent="1">
          <mxGeometry x="565" y="860" width="70" height="30" as="geometry" />
        </mxCell>
        <mxCell id="uSfccBBa-PWIp4v0e1si-39" value="" style="endArrow=none;html=1;rounded=0;entryX=0;entryY=0;entryDx=0;entryDy=0;exitX=0.5;exitY=1;exitDx=0;exitDy=0;" edge="1" parent="1" source="uSfccBBa-PWIp4v0e1si-34" target="uSfccBBa-PWIp4v0e1si-40">
          <mxGeometry width="50" height="50" relative="1" as="geometry">
            <mxPoint x="670" y="892" as="sourcePoint" />
            <mxPoint x="986.3499999999999" y="798" as="targetPoint" />
          </mxGeometry>
        </mxCell>
        <mxCell id="uSfccBBa-PWIp4v0e1si-40" value="Longitude" style="ellipse;whiteSpace=wrap;html=1;" vertex="1" parent="1">
          <mxGeometry x="677.5" y="920" width="72.5" height="30" as="geometry" />
        </mxCell>
        <mxCell id="uSfccBBa-PWIp4v0e1si-41" value="" style="endArrow=none;html=1;rounded=0;entryX=0.5;entryY=0;entryDx=0;entryDy=0;exitX=0.5;exitY=1;exitDx=0;exitDy=0;" edge="1" parent="1" source="uSfccBBa-PWIp4v0e1si-34" target="uSfccBBa-PWIp4v0e1si-42">
          <mxGeometry width="50" height="50" relative="1" as="geometry">
            <mxPoint x="660" y="894" as="sourcePoint" />
            <mxPoint x="1011.3499999999999" y="832" as="targetPoint" />
          </mxGeometry>
        </mxCell>
        <mxCell id="uSfccBBa-PWIp4v0e1si-42" value="Latitude" style="ellipse;whiteSpace=wrap;html=1;" vertex="1" parent="1">
          <mxGeometry x="635" y="971" width="65" height="30" as="geometry" />
        </mxCell>
        <mxCell id="uSfccBBa-PWIp4v0e1si-43" value="" style="endArrow=none;html=1;rounded=0;entryX=0.423;entryY=0.05;entryDx=0;entryDy=0;exitX=0.5;exitY=1;exitDx=0;exitDy=0;entryPerimeter=0;" edge="1" parent="1" source="uSfccBBa-PWIp4v0e1si-34" target="uSfccBBa-PWIp4v0e1si-44">
          <mxGeometry width="50" height="50" relative="1" as="geometry">
            <mxPoint x="630" y="896" as="sourcePoint" />
            <mxPoint x="1006.3499999999999" y="868" as="targetPoint" />
          </mxGeometry>
        </mxCell>
        <mxCell id="uSfccBBa-PWIp4v0e1si-44" value="Address" style="ellipse;whiteSpace=wrap;html=1;" vertex="1" parent="1">
          <mxGeometry x="530" y="965" width="80" height="30" as="geometry" />
        </mxCell>
        <mxCell id="uSfccBBa-PWIp4v0e1si-45" value="" style="endArrow=none;html=1;rounded=0;entryX=0.536;entryY=0.033;entryDx=0;entryDy=0;exitX=0.5;exitY=1;exitDx=0;exitDy=0;entryPerimeter=0;" edge="1" parent="1" source="uSfccBBa-PWIp4v0e1si-34" target="uSfccBBa-PWIp4v0e1si-46">
          <mxGeometry width="50" height="50" relative="1" as="geometry">
            <mxPoint x="622.5" y="894" as="sourcePoint" />
            <mxPoint x="993.8499999999999" y="902" as="targetPoint" />
          </mxGeometry>
        </mxCell>
        <mxCell id="uSfccBBa-PWIp4v0e1si-46" value="Name" style="ellipse;whiteSpace=wrap;html=1;" vertex="1" parent="1">
          <mxGeometry x="480" y="935" width="60" height="30" as="geometry" />
        </mxCell>
        <mxCell id="uSfccBBa-PWIp4v0e1si-47" value="" style="endArrow=none;html=1;rounded=0;entryX=0.65;entryY=0.046;entryDx=0;entryDy=0;exitX=0.5;exitY=1;exitDx=0;exitDy=0;entryPerimeter=0;" edge="1" parent="1" source="uSfccBBa-PWIp4v0e1si-34" target="uSfccBBa-PWIp4v0e1si-48">
          <mxGeometry width="50" height="50" relative="1" as="geometry">
            <mxPoint x="610" y="894.5" as="sourcePoint" />
            <mxPoint x="968.8499999999999" y="936.5" as="targetPoint" />
          </mxGeometry>
        </mxCell>
        <mxCell id="uSfccBBa-PWIp4v0e1si-48" value="LocationID  " style="ellipse;whiteSpace=wrap;html=1;" vertex="1" parent="1">
          <mxGeometry x="420" y="896.5" width="80" height="30" as="geometry" />
        </mxCell>
        <mxCell id="uSfccBBa-PWIp4v0e1si-49" value="" style="endArrow=none;html=1;rounded=0;exitX=0;exitY=0.5;exitDx=0;exitDy=0;entryX=1;entryY=0.5;entryDx=0;entryDy=0;" edge="1" parent="1" source="uSfccBBa-PWIp4v0e1si-51" target="uSfccBBa-PWIp4v0e1si-54">
          <mxGeometry width="50" height="50" relative="1" as="geometry">
            <mxPoint x="120" y="383" as="sourcePoint" />
            <mxPoint x="-150" y="280" as="targetPoint" />
          </mxGeometry>
        </mxCell>
        <mxCell id="uSfccBBa-PWIp4v0e1si-50" value="n" style="edgeLabel;html=1;align=center;verticalAlign=middle;resizable=0;points=[];" vertex="1" connectable="0" parent="uSfccBBa-PWIp4v0e1si-49">
          <mxGeometry x="-0.3714" relative="1" as="geometry">
            <mxPoint as="offset" />
          </mxGeometry>
        </mxCell>
        <mxCell id="uSfccBBa-PWIp4v0e1si-51" value="" style="rhombus;whiteSpace=wrap;html=1;" vertex="1" parent="1">
          <mxGeometry x="40" y="240" width="80" height="80" as="geometry" />
        </mxCell>
        <mxCell id="uSfccBBa-PWIp4v0e1si-52" value="" style="endArrow=none;html=1;rounded=0;entryX=1;entryY=0.5;entryDx=0;entryDy=0;exitX=0;exitY=0.5;exitDx=0;exitDy=0;" edge="1" parent="1" target="uSfccBBa-PWIp4v0e1si-51" source="L9DdGGGKMgnVzfjOgFJ2-1">
          <mxGeometry width="50" height="50" relative="1" as="geometry">
            <mxPoint x="280" y="335" as="sourcePoint" />
            <mxPoint x="119.57999999999993" y="510" as="targetPoint" />
          </mxGeometry>
        </mxCell>
        <mxCell id="uSfccBBa-PWIp4v0e1si-53" value="1" style="edgeLabel;html=1;align=center;verticalAlign=middle;resizable=0;points=[];" vertex="1" connectable="0" parent="uSfccBBa-PWIp4v0e1si-52">
          <mxGeometry x="-0.0706" y="1" relative="1" as="geometry">
            <mxPoint as="offset" />
          </mxGeometry>
        </mxCell>
        <mxCell id="uSfccBBa-PWIp4v0e1si-54" value="NOTIFICATION" style="rounded=0;whiteSpace=wrap;html=1;" vertex="1" parent="1">
          <mxGeometry x="-250" y="265" width="97" height="30" as="geometry" />
        </mxCell>
        <mxCell id="uSfccBBa-PWIp4v0e1si-55" value="" style="endArrow=none;html=1;rounded=0;entryX=0;entryY=0;entryDx=0;entryDy=0;exitX=0.5;exitY=1;exitDx=0;exitDy=0;" edge="1" parent="1" source="uSfccBBa-PWIp4v0e1si-54" target="uSfccBBa-PWIp4v0e1si-56">
          <mxGeometry width="50" height="50" relative="1" as="geometry">
            <mxPoint x="-88" y="265" as="sourcePoint" />
            <mxPoint x="88.34999999999991" y="191" as="targetPoint" />
          </mxGeometry>
        </mxCell>
        <mxCell id="uSfccBBa-PWIp4v0e1si-56" value="&lt;span style=&quot;color: rgba(0, 0, 0, 0); font-family: monospace; font-size: 0px; text-align: start; text-wrap-mode: nowrap;&quot;&gt;%3CmxGraphModel%3E%3Croot%3E%3CmxCell%20id%3D%220%22%2F%3E%3CmxCell%20id%3D%221%22%20parent%3D%220%22%2F%3E%3CmxCell%20id%3D%222%22%20value%3D%22%22%20style%3D%22endArrow%3Dnone%3Bhtml%3D1%3Brounded%3D0%3BentryX%3D0%3BentryY%3D0.5%3BentryDx%3D0%3BentryDy%3D0%3BexitX%3D1%3BexitY%3D0%3BexitDx%3D0%3BexitDy%3D0%3B%22%20edge%3D%221%22%20target%3D%223%22%20parent%3D%221%22%3E%3CmxGeometry%20width%3D%2250%22%20height%3D%2250%22%20relative%3D%221%22%20as%3D%22geometry%22%3E%3CmxPoint%20x%3D%22880%22%20y%3D%22265%22%20as%3D%22sourcePoint%22%2F%3E%3CmxPoint%20x%3D%221056.35%22%20y%3D%22191%22%20as%3D%22targetPoint%22%2F%3E%3C%2FmxGeometry%3E%3C%2FmxCell%3E%3CmxCell%20id%3D%223%22%20value%3D%22UpdatedAt%20%22%20style%3D%22ellipse%3BwhiteSpace%3Dwrap%3Bhtml%3D1%3B%22%20vertex%3D%221%22%20parent%3D%221%22%3E%3CmxGeometry%20x%3D%22940%22%20y%3D%22260%22%20width%3D%2280%22%20height%3D%2230%22%20as%3D%22geometry%22%2F%3E%3C%2FmxCell%3E%3C%2Froot%3E%3C%2FmxGraphModel%3E&lt;/span&gt;PaymentID&amp;nbsp;" style="ellipse;whiteSpace=wrap;html=1;" vertex="1" parent="1">
          <mxGeometry x="-113" y="301.5" width="80" height="30" as="geometry" />
        </mxCell>
        <mxCell id="uSfccBBa-PWIp4v0e1si-57" value="" style="endArrow=none;html=1;rounded=0;entryX=0.384;entryY=0.118;entryDx=0;entryDy=0;exitX=0.5;exitY=1;exitDx=0;exitDy=0;entryPerimeter=0;" edge="1" parent="1" source="uSfccBBa-PWIp4v0e1si-54" target="uSfccBBa-PWIp4v0e1si-58">
          <mxGeometry width="50" height="50" relative="1" as="geometry">
            <mxPoint x="-78" y="245" as="sourcePoint" />
            <mxPoint x="163.3499999999999" y="171" as="targetPoint" />
          </mxGeometry>
        </mxCell>
        <mxCell id="uSfccBBa-PWIp4v0e1si-58" value="SentAt" style="ellipse;whiteSpace=wrap;html=1;" vertex="1" parent="1">
          <mxGeometry x="-138" y="340" width="80" height="30" as="geometry" />
        </mxCell>
        <mxCell id="uSfccBBa-PWIp4v0e1si-59" value="" style="endArrow=none;html=1;rounded=0;entryX=0;entryY=0;entryDx=0;entryDy=0;exitX=0.5;exitY=1;exitDx=0;exitDy=0;" edge="1" parent="1" source="uSfccBBa-PWIp4v0e1si-54" target="uSfccBBa-PWIp4v0e1si-60">
          <mxGeometry width="50" height="50" relative="1" as="geometry">
            <mxPoint x="-118" y="297" as="sourcePoint" />
            <mxPoint x="198.3499999999999" y="203" as="targetPoint" />
          </mxGeometry>
        </mxCell>
        <mxCell id="uSfccBBa-PWIp4v0e1si-60" value="IsRead " style="ellipse;whiteSpace=wrap;html=1;" vertex="1" parent="1">
          <mxGeometry x="-168" y="376" width="90" height="30" as="geometry" />
        </mxCell>
        <mxCell id="uSfccBBa-PWIp4v0e1si-61" value="" style="endArrow=none;html=1;rounded=0;entryX=0.5;entryY=0;entryDx=0;entryDy=0;exitX=0.5;exitY=1;exitDx=0;exitDy=0;" edge="1" parent="1" source="uSfccBBa-PWIp4v0e1si-54" target="uSfccBBa-PWIp4v0e1si-68">
          <mxGeometry width="50" height="50" relative="1" as="geometry">
            <mxPoint x="-128" y="299" as="sourcePoint" />
            <mxPoint x="-178" y="406" as="targetPoint" />
          </mxGeometry>
        </mxCell>
        <mxCell id="uSfccBBa-PWIp4v0e1si-62" value="" style="endArrow=none;html=1;rounded=0;entryX=0.423;entryY=0.05;entryDx=0;entryDy=0;exitX=0.5;exitY=1;exitDx=0;exitDy=0;entryPerimeter=0;" edge="1" parent="1" source="uSfccBBa-PWIp4v0e1si-54" target="uSfccBBa-PWIp4v0e1si-63">
          <mxGeometry width="50" height="50" relative="1" as="geometry">
            <mxPoint x="-158" y="301" as="sourcePoint" />
            <mxPoint x="218.3499999999999" y="273" as="targetPoint" />
          </mxGeometry>
        </mxCell>
        <mxCell id="uSfccBBa-PWIp4v0e1si-63" value="Message" style="ellipse;whiteSpace=wrap;html=1;" vertex="1" parent="1">
          <mxGeometry x="-298" y="376" width="78" height="30" as="geometry" />
        </mxCell>
        <mxCell id="uSfccBBa-PWIp4v0e1si-64" value="" style="endArrow=none;html=1;rounded=0;entryX=0.729;entryY=0.029;entryDx=0;entryDy=0;exitX=0.5;exitY=1;exitDx=0;exitDy=0;entryPerimeter=0;" edge="1" parent="1" source="uSfccBBa-PWIp4v0e1si-54" target="uSfccBBa-PWIp4v0e1si-66">
          <mxGeometry width="50" height="50" relative="1" as="geometry">
            <mxPoint x="-165.5" y="299" as="sourcePoint" />
            <mxPoint x="-300" y="341" as="targetPoint" />
          </mxGeometry>
        </mxCell>
        <mxCell id="uSfccBBa-PWIp4v0e1si-65" value="" style="endArrow=none;html=1;rounded=0;entryX=1;entryY=0;entryDx=0;entryDy=0;exitX=0.5;exitY=1;exitDx=0;exitDy=0;" edge="1" parent="1" source="uSfccBBa-PWIp4v0e1si-54" target="uSfccBBa-PWIp4v0e1si-67">
          <mxGeometry width="50" height="50" relative="1" as="geometry">
            <mxPoint x="-178" y="299.5" as="sourcePoint" />
            <mxPoint x="-320" y="303" as="targetPoint" />
          </mxGeometry>
        </mxCell>
        <mxCell id="uSfccBBa-PWIp4v0e1si-66" value="UserID " style="ellipse;whiteSpace=wrap;html=1;" vertex="1" parent="1">
          <mxGeometry x="-350" y="346" width="70" height="30" as="geometry" />
        </mxCell>
        <mxCell id="uSfccBBa-PWIp4v0e1si-67" value="NotificationID " style="ellipse;whiteSpace=wrap;html=1;" vertex="1" parent="1">
          <mxGeometry x="-410" y="300" width="95" height="30" as="geometry" />
        </mxCell>
        <mxCell id="uSfccBBa-PWIp4v0e1si-68" value="Type " style="ellipse;whiteSpace=wrap;html=1;" vertex="1" parent="1">
          <mxGeometry x="-220" y="418" width="90" height="30" as="geometry" />
        </mxCell>
        <mxCell id="uSfccBBa-PWIp4v0e1si-70" value="" style="endArrow=none;html=1;rounded=0;entryX=1;entryY=0.5;entryDx=0;entryDy=0;exitX=0;exitY=0.5;exitDx=0;exitDy=0;" edge="1" parent="1" source="uSfccBBa-PWIp4v0e1si-72" target="L9DdGGGKMgnVzfjOgFJ2-67">
          <mxGeometry width="50" height="50" relative="1" as="geometry">
            <mxPoint x="1300" y="328" as="sourcePoint" />
            <mxPoint x="1090" y="280" as="targetPoint" />
          </mxGeometry>
        </mxCell>
        <mxCell id="uSfccBBa-PWIp4v0e1si-71" value="n" style="edgeLabel;html=1;align=center;verticalAlign=middle;resizable=0;points=[];" vertex="1" connectable="0" parent="uSfccBBa-PWIp4v0e1si-70">
          <mxGeometry x="-0.3714" relative="1" as="geometry">
            <mxPoint as="offset" />
          </mxGeometry>
        </mxCell>
        <mxCell id="uSfccBBa-PWIp4v0e1si-72" value="" style="rhombus;whiteSpace=wrap;html=1;" vertex="1" parent="1">
          <mxGeometry x="1250" y="240" width="80" height="80" as="geometry" />
        </mxCell>
        <mxCell id="uSfccBBa-PWIp4v0e1si-73" value="" style="endArrow=none;html=1;rounded=0;entryX=1;entryY=0.5;entryDx=0;entryDy=0;exitX=-0.002;exitY=0.366;exitDx=0;exitDy=0;exitPerimeter=0;" edge="1" parent="1" target="uSfccBBa-PWIp4v0e1si-72" source="uSfccBBa-PWIp4v0e1si-75">
          <mxGeometry width="50" height="50" relative="1" as="geometry">
            <mxPoint x="1460" y="280" as="sourcePoint" />
            <mxPoint x="1299.58" y="455" as="targetPoint" />
          </mxGeometry>
        </mxCell>
        <mxCell id="uSfccBBa-PWIp4v0e1si-74" value="n" style="edgeLabel;html=1;align=center;verticalAlign=middle;resizable=0;points=[];" vertex="1" connectable="0" parent="uSfccBBa-PWIp4v0e1si-73">
          <mxGeometry x="-0.0706" y="1" relative="1" as="geometry">
            <mxPoint as="offset" />
          </mxGeometry>
        </mxCell>
        <mxCell id="uSfccBBa-PWIp4v0e1si-75" value="PROMOTION" style="rounded=0;whiteSpace=wrap;html=1;" vertex="1" parent="1">
          <mxGeometry x="1510" y="269.5" width="90" height="30" as="geometry" />
        </mxCell>
        <mxCell id="uSfccBBa-PWIp4v0e1si-76" value="" style="endArrow=none;html=1;rounded=0;entryX=0;entryY=0;entryDx=0;entryDy=0;exitX=0.5;exitY=1;exitDx=0;exitDy=0;" edge="1" parent="1" source="uSfccBBa-PWIp4v0e1si-75" target="uSfccBBa-PWIp4v0e1si-77">
          <mxGeometry width="50" height="50" relative="1" as="geometry">
            <mxPoint x="1645" y="269.5" as="sourcePoint" />
            <mxPoint x="1821.35" y="195.5" as="targetPoint" />
          </mxGeometry>
        </mxCell>
        <mxCell id="uSfccBBa-PWIp4v0e1si-77" value="Description&amp;nbsp;" style="ellipse;whiteSpace=wrap;html=1;" vertex="1" parent="1">
          <mxGeometry x="1655" y="314.5" width="80" height="30" as="geometry" />
        </mxCell>
        <mxCell id="uSfccBBa-PWIp4v0e1si-78" value="" style="endArrow=none;html=1;rounded=0;entryX=0.384;entryY=0.118;entryDx=0;entryDy=0;exitX=0.5;exitY=1;exitDx=0;exitDy=0;entryPerimeter=0;" edge="1" parent="1" source="uSfccBBa-PWIp4v0e1si-75" target="uSfccBBa-PWIp4v0e1si-79">
          <mxGeometry width="50" height="50" relative="1" as="geometry">
            <mxPoint x="1655" y="249.5" as="sourcePoint" />
            <mxPoint x="1896.35" y="175.5" as="targetPoint" />
          </mxGeometry>
        </mxCell>
        <mxCell id="uSfccBBa-PWIp4v0e1si-79" value="IsActive " style="ellipse;whiteSpace=wrap;html=1;" vertex="1" parent="1">
          <mxGeometry x="1595" y="344.5" width="80" height="30" as="geometry" />
        </mxCell>
        <mxCell id="uSfccBBa-PWIp4v0e1si-80" value="" style="endArrow=none;html=1;rounded=0;entryX=0;entryY=0;entryDx=0;entryDy=0;exitX=0.5;exitY=1;exitDx=0;exitDy=0;" edge="1" parent="1" source="uSfccBBa-PWIp4v0e1si-75" target="uSfccBBa-PWIp4v0e1si-81">
          <mxGeometry width="50" height="50" relative="1" as="geometry">
            <mxPoint x="1615" y="301.5" as="sourcePoint" />
            <mxPoint x="1931.35" y="207.5" as="targetPoint" />
          </mxGeometry>
        </mxCell>
        <mxCell id="uSfccBBa-PWIp4v0e1si-81" value="EndDate" style="ellipse;whiteSpace=wrap;html=1;" vertex="1" parent="1">
          <mxGeometry x="1565" y="380.5" width="90" height="30" as="geometry" />
        </mxCell>
        <mxCell id="uSfccBBa-PWIp4v0e1si-82" value="" style="endArrow=none;html=1;rounded=0;entryX=0.5;entryY=0;entryDx=0;entryDy=0;exitX=0.5;exitY=1;exitDx=0;exitDy=0;" edge="1" parent="1" source="uSfccBBa-PWIp4v0e1si-75" target="uSfccBBa-PWIp4v0e1si-83">
          <mxGeometry width="50" height="50" relative="1" as="geometry">
            <mxPoint x="1605" y="303.5" as="sourcePoint" />
            <mxPoint x="1956.35" y="241.5" as="targetPoint" />
          </mxGeometry>
        </mxCell>
        <mxCell id="uSfccBBa-PWIp4v0e1si-83" value="StartDate" style="ellipse;whiteSpace=wrap;html=1;" vertex="1" parent="1">
          <mxGeometry x="1515" y="410.5" width="80" height="30" as="geometry" />
        </mxCell>
        <mxCell id="uSfccBBa-PWIp4v0e1si-84" value="" style="endArrow=none;html=1;rounded=0;entryX=0.423;entryY=0.05;entryDx=0;entryDy=0;exitX=0.5;exitY=1;exitDx=0;exitDy=0;entryPerimeter=0;" edge="1" parent="1" source="uSfccBBa-PWIp4v0e1si-75" target="uSfccBBa-PWIp4v0e1si-85">
          <mxGeometry width="50" height="50" relative="1" as="geometry">
            <mxPoint x="1575" y="305.5" as="sourcePoint" />
            <mxPoint x="1951.35" y="277.5" as="targetPoint" />
          </mxGeometry>
        </mxCell>
        <mxCell id="uSfccBBa-PWIp4v0e1si-85" value="DiscountPercentage" style="ellipse;whiteSpace=wrap;html=1;" vertex="1" parent="1">
          <mxGeometry x="1410" y="380.5" width="135" height="30" as="geometry" />
        </mxCell>
        <mxCell id="uSfccBBa-PWIp4v0e1si-86" value="" style="endArrow=none;html=1;rounded=0;entryX=0.536;entryY=0.033;entryDx=0;entryDy=0;exitX=0.5;exitY=1;exitDx=0;exitDy=0;entryPerimeter=0;" edge="1" parent="1" source="uSfccBBa-PWIp4v0e1si-75" target="uSfccBBa-PWIp4v0e1si-87">
          <mxGeometry width="50" height="50" relative="1" as="geometry">
            <mxPoint x="1567.5" y="303.5" as="sourcePoint" />
            <mxPoint x="1938.85" y="311.5" as="targetPoint" />
          </mxGeometry>
        </mxCell>
        <mxCell id="uSfccBBa-PWIp4v0e1si-87" value="Code" style="ellipse;whiteSpace=wrap;html=1;" vertex="1" parent="1">
          <mxGeometry x="1372.5" y="344.5" width="112.5" height="30" as="geometry" />
        </mxCell>
        <mxCell id="uSfccBBa-PWIp4v0e1si-88" value="" style="endArrow=none;html=1;rounded=0;entryX=0.65;entryY=0.046;entryDx=0;entryDy=0;exitX=0.5;exitY=1;exitDx=0;exitDy=0;entryPerimeter=0;" edge="1" parent="1" source="uSfccBBa-PWIp4v0e1si-75" target="uSfccBBa-PWIp4v0e1si-89">
          <mxGeometry width="50" height="50" relative="1" as="geometry">
            <mxPoint x="1555" y="304" as="sourcePoint" />
            <mxPoint x="1913.85" y="346" as="targetPoint" />
          </mxGeometry>
        </mxCell>
        <mxCell id="uSfccBBa-PWIp4v0e1si-89" value="PromotionID  " style="ellipse;whiteSpace=wrap;html=1;" vertex="1" parent="1">
          <mxGeometry x="1355" y="306" width="90" height="30" as="geometry" />
        </mxCell>
        <mxCell id="uSfccBBa-PWIp4v0e1si-92" value="" style="endArrow=none;html=1;rounded=0;entryX=1;entryY=0.25;entryDx=0;entryDy=0;exitX=0;exitY=0.5;exitDx=0;exitDy=0;" edge="1" parent="1" source="uSfccBBa-PWIp4v0e1si-97" target="L9DdGGGKMgnVzfjOgFJ2-1">
          <mxGeometry width="50" height="50" relative="1" as="geometry">
            <mxPoint x="601.7157287525381" y="93.2842712474619" as="sourcePoint" />
            <mxPoint x="755.36" y="282.5" as="targetPoint" />
          </mxGeometry>
        </mxCell>
        <mxCell id="uSfccBBa-PWIp4v0e1si-94" value="1" style="edgeLabel;html=1;align=center;verticalAlign=middle;resizable=0;points=[];" vertex="1" connectable="0" parent="uSfccBBa-PWIp4v0e1si-92">
          <mxGeometry x="-0.2212" y="-2" relative="1" as="geometry">
            <mxPoint as="offset" />
          </mxGeometry>
        </mxCell>
        <mxCell id="uSfccBBa-PWIp4v0e1si-97" value="" style="rhombus;whiteSpace=wrap;html=1;" vertex="1" parent="1">
          <mxGeometry x="590" y="48" width="80" height="80" as="geometry" />
        </mxCell>
      </root>
    </mxGraphModel>
  </diagram>
</mxfile>
